<?xml version="1.0" encoding="UTF-8"?>
<svg width="752pt" height="752pt" version="1.1" viewBox="0 0 752 752" xmlns="http://www.w3.org/2000/svg">
 <g fill="#28abe2">
  <path d="m514.75 415.04h-43.938-76.773-25.527c-1.7109 0-3.4688 0.046875-5.1797 0-5.2266-0.09375-9.3867-3.9766-9.5273-9.25-0.37109-18.312 0-36.676 0-54.988v-35.98-10.867c0-2.4961-0.18359-4.9492 0.97266-7.2148 3.0977-6.1523 10.035-5.1328 15.723-5.1328h27.426 77.465 29.32 7.9102c2.3594 0 4.5781 0 6.707 1.25 6.1953 3.6523 4.5781 12.441 4.5781 18.547v34.316c0 19.887 0.14062 39.773 0 59.66 0.046875 5.3125-3.793 9.5195-9.1562 9.6602-5.918 0.14062-5.9648 9.3867 0 9.25 10.223-0.23047 18.312-8.3242 18.5-18.547 0.046875-1.8945 0-3.7461 0-5.6406v-31.543-66.09c0-5.3203-1.3398-10.223-5.043-14.246-3.7461-4.0703-9.0195-5.875-14.43-5.875h-19.055-76.633c-18.082 0-36.121-0.046875-54.203 0-5.5977 0-11.008 1.9883-14.707 6.2891-3.4688 4.0234-4.625 8.7891-4.625 13.922v26.223 71.637c0 1.7578-0.046875 3.5625 0 5.3203 0.18359 10.176 8.3242 18.312 18.5 18.5 4.4844 0.09375 9.0195 0 13.504 0h73.164 61.648 3.3281c6.0156 0.050781 6.0156-9.1992 0.050782-9.1992z"/>
  <path d="m520.25 294.84c-9.25 8.2773-18.453 16.602-27.703 24.883-14.059 12.625-28.074 25.25-42.133 37.832-2.6836 2.4062-5.3203 5.3203-8.2773 7.3984 0.69531-0.50781-0.37109 0.14062-0.41797 0.18359-0.32422 0.14063-0.60156 0.27734-0.97266 0.37109-0.83203 0.27734-1.7578 0.37109-2.6367 0.23047-0.69531-0.09375-1.2969-0.32422-1.8945-0.60156-0.09375-0.046874-0.18359-0.09375-0.32422-0.18359-0.73828-0.46094-0.78516-0.50781-0.14062-0.046875 0.27734-0.09375 0.60156 0.50781-0.09375-0.09375-0.50781-0.46094-1.0156-0.87891-1.5273-1.2969-1.25-1.1094-2.4961-2.2188-3.7461-3.3281-13.18-11.84-26.406-23.68-39.59-35.52-10.914-9.8047-21.738-19.703-32.742-29.367-0.18359-0.18359-0.37109-0.32422-0.55469-0.50781-4.4414-3.9766-10.961 2.543-6.5195 6.5195 9.5273 8.5547 19.055 17.113 28.629 25.668 14.059 12.625 28.164 25.25 42.223 37.879 2.9141 2.5898 6.0117 6.1055 9.4336 8.0938 6.2422 3.6055 13.367 2.1289 18.547-2.4492 1.1094-0.97266 2.1719-1.9414 3.2383-2.9141 13.133-11.84 26.316-23.633 39.449-35.473 11.238-10.082 22.707-19.934 33.715-30.293 0.18359-0.18359 0.37109-0.32422 0.55469-0.50781 4.4922-3.9336-2.0781-10.453-6.5156-6.4766z"/>
  <path d="m433.35 460.64v42.918c0 14.566 0.32422 29.23 0 43.797-0.09375 3.8867-2.6836 7.0312-6.5664 7.168-0.87891 0.046875-1.7578 0-2.6367 0h-14.199-52.77-63.453-47.914c-3.3281 0-6.6133 0.046875-9.9414 0-4.4844-0.046875-7.8633-3.3281-7.8633-7.8164-0.046875-6.7969 0-13.645 0-20.441v-43.195-57.766-64.102-62.25-52.215-33.992-7.5859c0-4.3945 3.0078-7.6328 7.5859-7.7227 9.3867-0.18359 18.824 0 28.211 0h58.133 61.879 39.402c4.1172 0 8.1875-0.18359 9.7578 4.3008 0.78516 2.2656 0.37109 5.2734 0.37109 7.6758v14.477 21.137c0 5.9648 9.25 5.9648 9.25 0v-22.754-14.059c0-3.6523 0.09375-7.168-1.3398-10.59-2.4961-5.875-8.1875-9.3438-14.477-9.4336h-2.7305-14.613-54.02-64.422-47.082c-2.7734 0-5.5977-0.046875-8.3711 0-9.25 0.18359-16.695 7.2148-16.742 16.559-0.046875 6.9844 0 13.969 0 20.996v44.215 58.922 65.578 62.668 51.844 32.141c0 1.9883-0.046875 3.9766 0 5.9648 0.18359 9.3438 7.7695 16.602 17.066 16.695 10.312 0.09375 20.582 0 30.895 0h60.262 61.832 36.258 1.8047c9.0195-0.23047 15.539-7.5859 15.723-16.418 0.09375-4.5781 0-9.1562 0-13.734v-59.938-13.043c-0.039063-5.9688-9.2891-5.9688-9.2891 0z"/>
  <path d="m347.79 500.64c-0.09375 6.9375-4.3477 13.504-11.008 15.863-6.7539 2.4062-14.477 0.41797-19.008-5.2266-4.4844-5.5508-4.9023-13.41-1.2031-19.469 3.6055-5.875 10.777-9.1094 17.574-7.7227 7.9102 1.5703 13.555 8.4609 13.645 16.555 0.09375 5.9648 9.3438 5.9648 9.25 0-0.18359-11.145-7.0742-20.859-17.527-24.648-9.9414-3.6055-21.781-0.37109-28.488 7.7695-7.0742 8.5078-8.3242 20.902-2.4492 30.477 5.7344 9.3438 16.648 14.059 27.379 12.117 12.254-2.2188 20.949-13.41 21.09-25.621 0.089843-6.0586-9.1602-6.0586-9.2539-0.09375z"/>
 </g>
</svg>
