<?xml version="1.0" encoding="UTF-8"?>
<svg width="752pt" height="752pt" version="1.1" viewBox="0 0 752 752" xmlns="http://www.w3.org/2000/svg">
 <g fill="#366955">
  <path d="m252.52 518.36c4.0352-5.9609 5.7578-13.191 4.8438-20.336-0.91016-7.1406-4.3984-13.707-9.8008-18.465-5.4062-4.7578-12.359-7.3828-19.559-7.3828-7.1992 0-14.156 2.625-19.559 7.3828-5.4062 4.7578-8.8906 11.324-9.8008 18.465-0.91406 7.1445 0.80859 14.375 4.8438 20.336-5.7891 2.0039-10.816 5.7617-14.379 10.746-3.5625 4.9883-5.4844 10.957-5.5039 17.086v14.801-0.003906c0 1.9648 0.78125 3.8477 2.168 5.2344 1.3867 1.3867 3.2695 2.168 5.2305 2.168h74c1.9609 0 3.8438-0.78125 5.2305-2.168 1.3867-1.3867 2.168-3.2695 2.168-5.2344v-14.797c-0.019531-6.1289-1.9453-12.098-5.5078-17.086-3.5586-4.9844-8.5859-8.7422-14.375-10.746zm-24.516-31.367c3.9258 0 7.6875 1.5586 10.465 4.3359 2.7734 2.7734 4.3359 6.5391 4.3359 10.465s-1.5625 7.6875-4.3359 10.465c-2.7773 2.7734-6.5391 4.3359-10.465 4.3359-3.9258 0-7.6914-1.5625-10.465-4.3359-2.7773-2.7773-4.3359-6.5391-4.3359-10.465s1.5586-7.6914 4.3359-10.465c2.7734-2.7773 6.5391-4.3359 10.465-4.3359zm29.598 66.598h-59.195v-7.3984c0-3.9258 1.5586-7.6914 4.332-10.465 2.7773-2.7773 6.5391-4.3359 10.465-4.3359h29.602c3.9219 0 7.6875 1.5586 10.465 4.3359 2.7734 2.7734 4.332 6.5391 4.332 10.465z"/>
  <path d="m294.61 479.6h96.195v14.801h-96.195z"/>
  <path d="m294.61 516.6h59.199v14.801h-59.199z"/>
  <path d="m294.61 553.59h96.195v14.801h-96.195z"/>
  <path d="m597.99 257.61c0-7.8477-3.1172-15.379-8.668-20.93s-13.082-8.668-20.93-8.668h-30.266c-6.3008-6.3125-13.078-12.125-20.273-17.391l-24.125-52.316c-1.2383-2.6016-3.8516-4.2695-6.7344-4.2891h-29.598c-4.0859 0-7.3984 3.3125-7.3984 7.3984v18.797c-32.133-6.957-65.57-4.8203-96.555 6.1758-30.984 10.992-58.289 30.406-78.855 56.059-20.562 25.652-33.566 56.527-37.555 89.16h-68.227c-3.9219 0.011719-7.6797 1.5781-10.449 4.3477-2.7734 2.7734-4.3359 6.5312-4.3477 10.453v235.39c-0.18359 4.1094 1.2734 8.1211 4.0469 11.16 2.7773 3.0391 6.6406 4.8516 10.75 5.043h244.19c4.1094-0.19141 7.9766-2.0039 10.75-5.043 2.7734-3.0391 4.2305-7.0508 4.0508-11.16v-51.133c37.277-3.1055 72.621-17.906 100.99-42.293 28.367-24.387 48.309-57.105 56.977-93.496 8.6641-36.391 5.6172-74.59-8.7148-109.14 6.043-1.8281 11.34-5.543 15.109-10.605 3.7695-5.0625 5.8164-11.203 5.832-17.516zm-140.59-14.797c1.9609 0 3.8438-0.78125 5.2305-2.168 1.3906-1.3906 2.168-3.2695 2.168-5.2344v-66.598h17.465l32.188 69.707c1.2148 2.6211 3.8438 4.2969 6.7344 4.293h47.211c5.2852 0 10.172 2.8203 12.816 7.3984 2.6445 4.5781 2.6445 10.219 0 14.801-2.6445 4.5781-7.5312 7.3984-12.816 7.3984h-47.211c-2.8906-0.007812-5.5195 1.668-6.7344 4.293l-32.188 69.703h-17.465v-66.598c0-1.9609-0.77734-3.8438-2.168-5.2305-1.3867-1.3906-3.2695-2.168-5.2305-2.168h-42.254c-3.2188-0.003906-6.0781 2.0547-7.1016 5.1055l-7.8438 24.492h-16.797v-88.797h16.797l7.8438 24.492c1.0234 3.0547 3.8828 5.1094 7.1016 5.1094zm-7.3984 44.398v18.277l-40.477 10.137c1.457-0.90625 2.5586-2.293 3.1055-3.9219l7.8438-24.496zm-37-96.199c12.457 0.042969 24.871 1.5078 37 4.3672v32.633h-29.527l-7.8438-24.492c-0.99219-3.043-3.8281-5.1055-7.0273-5.1055h-29.602c-4.0859 0-7.3984 3.3125-7.3984 7.3984v31.895l-3.9219-1.4805-32.484-23.238c24.52-14.34 52.402-21.922 80.805-21.977zm-94.199 30.562 38.109 27.23c0.52344 0.39062 1.0977 0.71484 1.7031 0.96094l9.9883 3.6992v55.941c0 1.9648 0.78125 3.8477 2.168 5.2344s3.2695 2.168 5.2305 2.168h28.711l-0.88672 0.22266c-2.3125 0.58203-4.207 2.2305-5.1055 4.4375l-4.0703 10.137h-23.457l-33.445-26.785-14.059-35.148h-0.003906c-0.83984-2.0938-2.5781-3.6953-4.7344-4.3672l-34.777-10.434c9.8672-12.719 21.535-23.934 34.629-33.297zm-43.66 46.027 36.109 10.879 13.469 33.668 0.003906-0.003906c0.49609 1.1875 1.2852 2.2305 2.293 3.0352l20.496 16.426h-95.602c3.1016-22.746 11.023-44.566 23.234-64.004zm137.86 314.19c0.019531 0.49219-0.10938 0.98438-0.37109 1.4023l-243.3 0.14844c-0.39453-0.41406-0.58203-0.98438-0.51953-1.5508v-124.39h244.19zm0-139.19h-244.19v-96.195h244.19zm14.801 73.109v-34.406l7.918 15.836 6.6602 16.574c-4.8125 0.88672-9.6211 1.5547-14.578 1.9961zm29.23-5.3281-7.8438-19.312-21.387-42.844v-101.82c-0.011719-3.9219-1.5742-7.6797-4.3477-10.453-2.7734-2.7695-6.5312-4.3359-10.453-4.3477h-2.3672l0.44531-1.1094 38.922-9.7656v33.074c0 1.9648 0.77734 3.8477 2.1641 5.2344 1.3906 1.3867 3.2734 2.168 5.2344 2.168h29.598c2.8828-0.023437 5.4961-1.6914 6.7344-4.293l32.113-69.707h35.668c19.402 43.184 19.02 92.68-1.0547 135.55-20.07 42.875-57.836 74.867-103.43 87.621z"/>
 </g>
</svg>
