<?xml version="1.0" encoding="UTF-8"?>
<svg width="752pt" height="752pt" version="1.1" viewBox="0 0 752 752" xmlns="http://www.w3.org/2000/svg">
 <g fill="#ff8662">
  <path d="m575.79 154.01h-207.19c-5.8867 0-11.535 2.3359-15.695 6.5-4.1641 4.1641-6.5039 9.8086-6.5039 15.699v73.996h-73.996c-5.8867 0-11.535 2.3398-15.699 6.5-4.1602 4.1641-6.5 9.8125-6.5 15.699v37l-22.199-0.003906c-7.0312-0.011719-13.652 3.3125-17.836 8.9609-4.1875 5.6523-5.4414 12.953-3.3828 19.672 2.0586 6.7227 7.1875 12.07 13.82 14.406v37l-58.762 158.71c-4.2031 11.352-2.5859 24.043 4.3281 33.98 6.9141 9.9375 18.254 15.859 30.359 15.863h122.14c12.109 0 23.449-5.9219 30.367-15.859s8.5352-22.629 4.332-33.984l-58.77-158.67v-37c6.668-2.3086 11.836-7.6602 13.914-14.402 2.0781-6.7422 0.82031-14.074-3.3906-19.738-4.2109-5.6602-10.867-8.9805-17.926-8.9336h-22.195v-36.996c0-4.0859 3.3125-7.3984 7.3984-7.3984h73.996v192.39c0 5.8867 2.3398 11.535 6.5039 15.695 4.1602 4.1641 9.8086 6.5039 15.695 6.5039h207.19c5.8867 0 11.535-2.3398 15.699-6.5039 4.1602-4.1602 6.5-9.8086 6.5-15.695v-281.19c0-5.8906-2.3398-11.535-6.5-15.699-4.1641-4.1641-9.8125-6.5-15.699-6.5zm-347.79 170.19h22.199v14.801h-22.199c-4.0859 0-7.3984-3.3125-7.3984-7.4023 0-4.0859 3.3125-7.3984 7.3984-7.3984zm6.9414 69.164c0.30469-0.82031 0.45703-1.6914 0.45703-2.5664v-37h14.801v90.898c-5.6094 1.7031-11.457 2.4922-17.316 2.3398-5.7422 0.15625-11.473-0.59375-16.98-2.2188zm104.54 159.92c2.5234 6.8125 1.5508 14.426-2.5977 20.391-4.1484 5.9609-10.953 9.5156-18.219 9.5156h-122.14c-7.2617 0-14.066-3.5547-18.219-9.5156-4.1484-5.9648-5.1172-13.578-2.5938-20.391l35.035-94.605c7.1602 2.2422 14.633 3.3125 22.133 3.1602 5.8242 0.074218 11.637-0.53516 17.316-1.8203v19.578h14.801v-24.309c5.582-1.6953 11.406-2.4844 17.238-2.332 7.332-0.19922 14.629 1.0742 21.461 3.7461l35.77 96.582zm-42.141-113.78c-4.9805-0.94141-10.039-1.3945-15.105-1.3438-5.7969-0.074218-11.586 0.53125-17.238 1.8125v-86.172h14.801v37h-0.003906c0 0.875 0.15625 1.7461 0.46094 2.5664zm-10.148-115.3c4.0898 0 7.4023 3.3125 7.4023 7.3984 0 4.0898-3.3125 7.4023-7.4023 7.4023h-22.195v-14.801zm258.99-155.39v26.535l-2.168-2.168c-2.8906-2.8867-7.5742-2.8867-10.465 0l-2.168 2.168v-26.535zm37 288.59h-0.003906c0 1.9609-0.77734 3.8438-2.1641 5.2305-1.3906 1.3906-3.2695 2.168-5.2344 2.168h-207.19c-4.0859 0-7.3984-3.3125-7.3984-7.3984v-192.39h29.598v-14.801h-29.598v-73.996c0-4.0898 3.3125-7.4023 7.3984-7.4023h148v44.398c0 2.9922 1.8008 5.6914 4.5664 6.8359 2.7656 1.1445 5.9453 0.51172 8.0625-1.6016l9.5664-9.5703 9.5703 9.5703c2.1172 2.1133 5.2969 2.7461 8.0625 1.6016s4.5664-3.8438 4.5664-6.8359v-44.398h14.801c1.9648 0 3.8438 0.78125 5.2344 2.168 1.3867 1.3867 2.1641 3.2695 2.1641 5.2344z"/>
  <path d="m405.6 191.01h29.598v14.801h-29.598z"/>
  <path d="m405.6 213.21h29.598v14.801h-29.598z"/>
  <path d="m405.6 376h29.598v14.801h-29.598z"/>
  <path d="m450 376h59.199v14.801h-59.199z"/>
  <path d="m405.6 405.6h103.6v14.801h-103.6z"/>
  <path d="m531.39 279.8c5.8867 0 11.535-2.3398 15.699-6.5 4.1602-4.1641 6.5-9.8125 6.5-15.699s-2.3398-11.535-6.5-15.695c-4.1641-4.1641-9.8125-6.5039-15.699-6.5039s-11.535 2.3398-15.695 6.5039c-4.1641 4.1602-6.5039 9.8086-6.5039 15.695 0.011719 3.2969 0.77344 6.5469 2.2188 9.5078l-16.887 16.887h0.003906c-4.5117-2.7188-9.668-4.168-14.934-4.1953-7.8516 0-15.379 3.1172-20.93 8.668-5.5508 5.5547-8.668 13.082-8.668 20.93 0.003906 2.0781 0.23047 4.1523 0.67188 6.1797l-14.926 7.4453c-5.4883-5.7148-13.391-8.4453-21.238-7.3398-7.8438 1.1055-14.684 5.9141-18.379 12.926-3.6953 7.0078-3.7969 15.367-0.27734 22.465 3.5234 7.1016 10.242 12.074 18.059 13.375 7.8164 1.2969 15.781-1.2383 21.41-6.8164 5.6289-5.5781 8.2344-13.52 7.0039-21.348l15.074-7.5195c5.0156 5.8906 12.168 9.5391 19.879 10.145 7.7148 0.60156 15.348-1.8906 21.219-6.9258l11.648 8.3477c-0.59766 1.9688-0.91797 4.0078-0.94922 6.0664-0.03125 6.7148 2.9609 13.09 8.1523 17.352 5.1914 4.2617 12.023 5.9609 18.605 4.6211s12.211-5.5703 15.32-11.523c3.1133-5.9492 3.3789-12.988 0.72656-19.156-2.6562-6.168-7.9453-10.816-14.41-12.648-6.4609-1.8281-13.402-0.65234-18.898 3.2031l-11.539-8.2656c3.3477-8.3711 2.5508-17.828-2.1523-25.52l16.887-16.879c2.9609 1.4492 6.2109 2.207 9.5078 2.2188zm-111 66.598c-2.9922 0-5.6914-1.8008-6.8359-4.5664-1.1445-2.7656-0.51172-5.9492 1.6055-8.0664 2.1172-2.1172 5.2969-2.75 8.0625-1.6016 2.7656 1.1445 4.5703 3.8438 4.5703 6.8359 0 1.9609-0.78125 3.8438-2.168 5.2305-1.3867 1.3867-3.2695 2.168-5.2344 2.168zm111-96.195c2.9922 0 5.6914 1.8008 6.8359 4.5664 1.1445 2.7656 0.51172 5.9492-1.6016 8.0664-2.1172 2.1133-5.3008 2.75-8.0664 1.6016-2.7656-1.1445-4.5664-3.8438-4.5664-6.8359 0-4.0859 3.3125-7.3984 7.3984-7.3984zm-51.797 73.996c-3.9258 0-7.6914-1.5586-10.465-4.3359-2.7773-2.7734-4.3359-6.5391-4.3359-10.465 0-3.9219 1.5586-7.6875 4.3359-10.465 2.7734-2.7734 6.5391-4.332 10.465-4.332 3.9258 0 7.6875 1.5586 10.465 4.332 2.7734 2.7773 4.3359 6.543 4.3359 10.465 0 3.9258-1.5625 7.6914-4.3359 10.465-2.7773 2.7773-6.5391 4.3359-10.465 4.3359zm51.797 14.801c2.9922 0 5.6914 1.8008 6.8359 4.5664 1.1445 2.7656 0.51172 5.9492-1.6016 8.0664-2.1172 2.1133-5.3008 2.7461-8.0664 1.6016s-4.5664-3.8438-4.5664-6.8359c0-4.0859 3.3125-7.3984 7.3984-7.3984z"/>
  <path d="m213.21 538.79h14.801v14.801h-14.801z"/>
  <path d="m235.41 501.8h14.801v14.801h-14.801z"/>
  <path d="m279.8 479.6h14.801v14.801h-14.801z"/>
  <path d="m279.8 524h14.801v14.801h-14.801z"/>
 </g>
</svg>
