<?xml version="1.0" encoding="UTF-8"?>
<svg width="752pt" height="752pt" version="1.1" viewBox="0 0 752 752" xmlns="http://www.w3.org/2000/svg">
 <g fill="#70d258">
  <path d="m424.26 389.64c0-12.801-5.082-25.074-14.133-34.125-9.0508-9.0469-21.324-14.133-34.125-14.133-12.797 0-25.07 5.0859-34.121 14.133-9.0508 9.0508-14.137 21.324-14.137 34.125 0 12.797 5.0859 25.074 14.137 34.125 9.0508 9.0469 21.324 14.133 34.121 14.133 12.797-0.011719 25.062-5.1016 34.109-14.148 9.0508-9.0469 14.137-21.316 14.148-34.109zm-48.258 29.316c-7.7734 0-15.23-3.0898-20.727-8.5859-5.5-5.5-8.5859-12.957-8.5859-20.73s3.0859-15.23 8.5859-20.73c5.4961-5.4961 12.953-8.5859 20.727-8.5859 7.7773 0 15.234 3.0898 20.73 8.5859 5.4961 5.5 8.5859 12.957 8.5859 20.73-0.011718 7.7695-3.1055 15.219-8.6016 20.715-5.4922 5.4961-12.941 8.5859-20.715 8.6016z"/>
  <path d="m428.66 322.58 60.332-104.52c3.2461-5.7773 1.293-13.09-4.4023-16.48-33.027-18.852-70.398-28.762-108.43-28.762-38.027 0-75.398 9.9102-108.43 28.762-3.9219 2.1484-6.3438 6.2773-6.3008 10.75 0.027344 2.0703 0.5625 4.1055 1.5625 5.918l60.336 104.33c2.1836 3.7617 6.2109 6.0742 10.559 6.0625 2.0977 0 4.1562-0.55469 5.9688-1.6133 22.418-12.754 49.898-12.754 72.316 0 1.8125 1.0586 3.8711 1.6133 5.9648 1.6133 4.3359-0.007812 8.3398-2.3164 10.516-6.0625zm-13.117-15.203c-25.031-11.859-54.062-11.859-79.09 0l-53.562-92.727c28.707-15.09 60.652-22.977 93.082-22.977 32.434 0 64.379 7.8867 93.082 22.977z"/>
  <path d="m581.11 377.56h-120.67c-6.6719 0-12.078 5.4102-12.078 12.078-0.070312 25.844-13.867 49.699-36.227 62.656-5.7617 3.3398-7.7305 10.711-4.4062 16.48l60.383 104.52c3.4062 5.6719 10.699 7.6211 16.48 4.4023 32.965-19.109 60.344-46.535 79.398-79.535 19.055-32.996 29.121-70.418 29.195-108.52 0-3.2031-1.2734-6.2734-3.5391-8.5391-2.2656-2.2656-5.3359-3.5391-8.5391-3.5391zm-100.11 179.96-53.516-92.535c22.883-15.664 37.453-40.836 39.637-68.48h107.03c-1.1914 32.438-10.301 64.094-26.539 92.203-16.238 28.105-39.109 51.812-66.613 69.051z"/>
  <path d="m267.08 577.37c1.8945 1.2539 4.1211 1.9141 6.3945 1.8945 4.3477 0.011719 8.3828-2.2773 10.605-6.0156l60.195-104.47c3.3242-5.7695 1.3555-13.141-4.4062-16.48l0.75781 0.42578-0.80469-0.47266v-0.003906c-22.359-12.953-36.156-36.812-36.23-62.652 0-3.2031-1.2695-6.2734-3.5352-8.5391-2.2656-2.2656-5.3359-3.5391-8.5391-3.5391h-120.62c-6.6719 0-12.078 5.4062-12.078 12.078 0.089844 38.023 10.129 75.363 29.121 108.3 18.992 32.945 46.277 60.34 79.141 79.469zm17.996-180.86c2.1719 27.637 16.723 52.809 39.59 68.48l-53.656 92.727c-27.449-17.238-50.277-40.914-66.5-68.973-16.227-28.062-25.359-59.656-26.605-92.047z"/>
 </g>
</svg>
