<?xml version="1.0" encoding="UTF-8"?>
<svg width="752pt" height="752pt" version="1.1" viewBox="0 0 752 752" xmlns="http://www.w3.org/2000/svg">
 <defs>
  <clipPath id="e">
   <path d="m139.21 228h355.79v45h-355.79z"/>
  </clipPath>
  <clipPath id="d">
   <path d="m139.21 450h325.79v45h-325.79z"/>
  </clipPath>
  <clipPath id="c">
   <path d="m287 139.21h60v96.789h-60z"/>
  </clipPath>
  <clipPath id="b">
   <path d="m390 361h222.79v251.79h-222.79z"/>
  </clipPath>
  <clipPath id="a">
   <path d="m553 183h59.793v60h-59.793z"/>
  </clipPath>
 </defs>
 <g clip-path="url(#e)">
  <path d="m487 272.41h-340.39c-4.0859 0-7.3984-3.3125-7.3984-7.3984v-29.602c0-4.0859 3.3125-7.3984 7.3984-7.3984h340.39c1.9648 0 3.8438 0.77734 5.2344 2.168 1.3867 1.3867 2.168 3.2695 2.168 5.2305v29.602c0 1.9609-0.78125 3.8438-2.168 5.2305-1.3906 1.3867-3.2695 2.168-5.2344 2.168zm-332.98-14.801h325.59v-14.797h-325.59z" fill="#00bac2"/>
 </g>
 <g clip-path="url(#d)">
  <path d="m450 494.4h-303.39c-4.0859 0-7.3984-3.3164-7.3984-7.4023v-29.598c0-4.0859 3.3125-7.3984 7.3984-7.3984h318.19v14.801l-310.79-0.003906v14.801h295.99z" fill="#00bac2"/>
 </g>
 <path d="m191.01 464.8h-29.598c-4.0859 0-7.3984-3.3125-7.3984-7.3984v-192.39c0-4.0898 3.3125-7.4023 7.3984-7.4023h29.598c1.9648 0 3.8477 0.78125 5.2344 2.168 1.3867 1.3867 2.168 3.2695 2.168 5.2344v192.39c0 1.9609-0.78125 3.8438-2.168 5.2305-1.3867 1.3906-3.2695 2.168-5.2344 2.168zm-22.199-14.797h14.801v-177.59h-14.801z" fill="#00bac2"/>
 <path d="m450 457.4h-14.801v-192.39c0-4.0898 3.3125-7.4023 7.3984-7.4023h29.602c1.9609 0 3.8438 0.78125 5.2305 2.168 1.3867 1.3867 2.168 3.2695 2.168 5.2344v51.797h-14.801v-44.398h-14.797z" fill="#00bac2"/>
 <path d="m272.41 235.41h-14.801v-36.996h-29.598v37l-14.801-0.003906v-44.398c0-4.0859 3.3125-7.3984 7.4023-7.3984h44.398c1.9609 0 3.8438 0.78125 5.2305 2.168 1.3867 1.3867 2.168 3.2695 2.168 5.2305z" fill="#00bac2"/>
 <g clip-path="url(#c)">
  <path d="m346.4 235.41h-14.801v-81.395h-29.598v81.395h-14.801v-88.797c0-4.0859 3.3164-7.3984 7.4023-7.3984h44.398c1.9609 0 3.8438 0.78125 5.2305 2.168 1.3867 1.3867 2.168 3.2695 2.168 5.2305z" fill="#00bac2"/>
 </g>
 <path d="m316.8 390.8c-7.8516 0-15.379-3.1172-20.93-8.668-5.5508-5.5508-8.6719-13.082-8.6719-20.93v-96.195h14.801v96.195c0 5.2852 2.8203 10.172 7.3984 12.816 4.582 2.6445 10.223 2.6445 14.801 0s7.3984-7.5312 7.3984-12.816v-96.195h14.801v96.195c0 7.8477-3.1172 15.379-8.668 20.93-5.5508 5.5508-13.082 8.668-20.93 8.668z" fill="#00bac2"/>
 <path d="m420.4 235.41h-14.797v-36.996h-29.602v37l-14.797-0.003906v-44.398c0-4.0859 3.3125-7.3984 7.3984-7.3984h44.398c1.9609 0 3.8438 0.78125 5.2305 2.168 1.3906 1.3867 2.168 3.2695 2.168 5.2305z" fill="#00bac2"/>
 <path d="m390.8 435.2c-7.8516 0-15.379-3.1172-20.93-8.668-5.5508-5.5508-8.668-13.082-8.668-20.93v-140.59h14.801l-0.003906 140.59c0 5.2852 2.8203 10.172 7.4023 12.816 4.5781 2.6406 10.219 2.6406 14.797 0 4.582-2.6445 7.4023-7.5312 7.4023-12.816v-140.59h14.801l-0.003906 140.59c0 7.8477-3.1172 15.379-8.668 20.93s-13.078 8.668-20.93 8.668z" fill="#00bac2"/>
 <path d="m242.81 435.2c-7.8516 0-15.379-3.1172-20.93-8.668-5.5508-5.5508-8.6719-13.082-8.6719-20.93v-140.59h14.801v140.59c0 5.2852 2.8203 10.172 7.3984 12.816 4.5781 2.6406 10.223 2.6406 14.801 0 4.5781-2.6445 7.3984-7.5312 7.3984-12.816v-140.59h14.801v140.59c0 7.8477-3.1172 15.379-8.6719 20.93-5.5508 5.5508-13.078 8.668-20.926 8.668z" fill="#00bac2"/>
 <path d="m294.61 287.2h44.398v14.801h-44.398z" fill="#00bac2"/>
 <path d="m220.61 316.8h44.398v14.801h-44.398z" fill="#00bac2"/>
 <path d="m368.6 316.8h44.398v14.801h-44.398z" fill="#00bac2"/>
 <path d="m538.79 368.6h-73.996c-4.0859 0-7.3984-3.3125-7.3984-7.3984v-29.602c0-4.0859 3.3125-7.3984 7.3984-7.3984h73.996c1.9648 0 3.8477 0.78125 5.2344 2.168 1.3867 1.3867 2.168 3.2695 2.168 5.2305v29.602c0 1.9609-0.78125 3.8438-2.168 5.2305-1.3867 1.3867-3.2695 2.168-5.2344 2.168zm-66.598-14.801h59.199v-14.797h-59.195z" fill="#00bac2"/>
 <g clip-path="url(#b)">
  <path d="m583.19 612.79h-162.79c-7.918 0.23047-15.582-2.8125-21.184-8.4141-5.6016-5.6016-8.6445-13.266-8.4141-21.188-0.011719-1.1445 0.24219-2.2773 0.73828-3.3047l80.66-161.23v-57.449h14.801v59.199l-0.003906-0.003906c0.011718 1.1445-0.23828 2.2773-0.73828 3.3086l-80.562 161.05c0.085938 3.7461 1.7109 7.2891 4.4961 9.793 2.7812 2.5039 6.4766 3.7539 10.207 3.4453h162.79c3.7344 0.30859 7.4297-0.9375 10.211-3.4414 2.7852-2.5078 4.4102-6.0508 4.4922-9.7969l-80.523-161.05c-0.51172-1.0273-0.77734-2.1602-0.77344-3.3086v-59.195h14.801v57.453l80.652 161.23c0.5 1.0273 0.75391 2.1602 0.74219 3.3047 0.23047 7.9219-2.8125 15.586-8.4141 21.188-5.6016 5.6016-13.266 8.6445-21.188 8.4141z" fill="#00bac2"/>
 </g>
 <path d="m575.79 583.19h-147.99c-2.5938 0.003906-4.9961-1.3555-6.3398-3.5742-1.3398-2.2188-1.418-4.9766-0.21094-7.2734l35.051-66.598h0.003907c1.2773-2.4258 3.7969-3.9492 6.5391-3.9492h77.906c2.7422 0 5.2617 1.5234 6.5391 3.9492l35.051 66.598h0.003906c1.207 2.2969 1.125 5.0547-0.21484 7.2734s-3.7422 3.5781-6.3359 3.5742zm-135.74-14.797h123.48l-27.262-51.797h-68.965z" fill="#00bac2"/>
 <path d="m472.2 524h14.801v14.801h-14.801z" fill="#00bac2"/>
 <path d="m494.4 546.2h14.801v14.801h-14.801z" fill="#00bac2"/>
 <path d="m516.6 524h14.801v14.801h-14.801z" fill="#00bac2"/>
 <path d="m531.39 287.2c-5.8867 0-11.535-2.3359-15.695-6.5-4.1641-4.1641-6.5039-9.8086-6.5039-15.695 0-5.8906 2.3398-11.535 6.5039-15.699 4.1602-4.1641 9.8086-6.5 15.695-6.5s11.535 2.3359 15.699 6.5c4.1602 4.1641 6.5 9.8086 6.5 15.699 0 5.8867-2.3398 11.531-6.5 15.695-4.1641 4.1641-9.8125 6.5-15.699 6.5zm0-29.598c-2.9922 0-5.6914 1.8047-6.8359 4.5703-1.1445 2.7617-0.51172 5.9453 1.6055 8.0625 2.1133 2.1172 5.2969 2.75 8.0625 1.6055 2.7656-1.1484 4.5664-3.8438 4.5664-6.8359 0-1.9648-0.77734-3.8477-2.1641-5.2344-1.3906-1.3867-3.2695-2.168-5.2344-2.168z" fill="#00bac2"/>
 <g clip-path="url(#a)">
  <path d="m583.19 242.81c-7.8477 0-15.379-3.1211-20.93-8.6719s-8.668-13.078-8.668-20.93c0-7.8477 3.1172-15.379 8.668-20.93 5.5508-5.5508 13.082-8.668 20.93-8.668 7.8516 0 15.379 3.1172 20.93 8.668 5.5508 5.5508 8.6719 13.082 8.6719 20.93 0 7.8516-3.1211 15.379-8.6719 20.93-5.5508 5.5508-13.078 8.6719-20.93 8.6719zm0-44.398c-3.9219 0-7.6875 1.5586-10.465 4.332-2.7734 2.7773-4.332 6.5391-4.332 10.465s1.5586 7.6914 4.332 10.465c2.7773 2.7773 6.543 4.3359 10.465 4.3359 3.9258 0 7.6914-1.5586 10.465-4.3359 2.7773-2.7734 4.3359-6.5391 4.3359-10.465s-1.5586-7.6875-4.3359-10.465c-2.7734-2.7734-6.5391-4.332-10.465-4.332z" fill="#00bac2"/>
 </g>
 <path d="m464.8 168.81h14.801v44.398h-14.801z" fill="#00bac2"/>
 <path d="m450 183.61h44.398v14.801h-44.398z" fill="#00bac2"/>
 <path d="m575.79 279.8h14.801v44.398h-14.801z" fill="#00bac2"/>
 <path d="m560.99 294.61h44.398v14.801h-44.398z" fill="#00bac2"/>
 <path d="m279.8 524h118.39v14.801h-118.39z" fill="#00bac2"/>
 <path d="m250.21 524h14.801v14.801h-14.801z" fill="#00bac2"/>
 <path d="m213.21 553.59h155.39v14.801h-155.39z" fill="#00bac2"/>
 <path d="m183.61 553.59h14.801v14.801h-14.801z" fill="#00bac2"/>
</svg>
