<?xml version="1.0" encoding="UTF-8"?>
<svg width="752pt" height="752pt" version="1.1" viewBox="0 0 752 752" xmlns="http://www.w3.org/2000/svg">
 <path d="m331.6 376h88.797c7.8516 0 15.379-3.1172 20.93-8.668s8.6719-13.078 8.6719-20.93v-21.902c0.050781-12.836-3.3242-25.453-9.7695-36.555-3.332-5.6992-7.4141-10.926-12.137-15.539-4.4883-4.2578-9.4531-7.9844-14.797-11.102 5.4766-9.5195 8.5273-20.246 8.8789-31.227 0-16.602-8.8555-31.941-23.234-40.242-14.379-8.3008-32.094-8.3008-46.473 0-14.375 8.3008-23.234 23.641-23.234 40.242 0.34766 11.094 3.4492 21.93 9.0273 31.523-10.629 6.2422-19.531 15.043-25.898 25.602-6.7539 11.27-10.332 24.156-10.359 37.297v21.902c0 7.8516 3.1172 15.379 8.668 20.93s13.082 8.668 20.93 8.668zm44.398-162.79c4.4766 0 8.7656 1.7773 11.93 4.9414 3.1641 3.1641 4.9414 7.457 4.9414 11.93 0 12.73-10.508 27.527-16.871 27.527s-16.871-14.801-16.871-27.527c0-4.4727 1.7773-8.7656 4.9414-11.93 3.1641-3.1641 7.457-4.9414 11.93-4.9414zm-44.398 111.29c0.050782-7.957 2.3047-15.742 6.5117-22.496 4.6875-8.1836 11.906-14.625 20.574-18.352 1.9609 0.89453 3.9883 1.6367 6.0664 2.2188 8.0469 2.5078 16.668 2.5078 24.715 0l3.8477-1.6289v0.003906c5.1641 2.1602 9.8438 5.3281 13.766 9.3242 2.7188 2.7305 5.0586 5.8164 6.9531 9.1758 3.8828 6.6445 5.9258 14.203 5.9219 21.902v21.754h-88.355zm86.723 146.96h0.003906c-1.1953 2.375-3.0078 4.3828-5.2461 5.8164-2.2422 1.4336-4.8242 2.2344-7.4805 2.3242-2.3242 0.027344-4.6133-0.53125-6.6602-1.6289l-22.941-11.395-22.938 11.395c-3.5234 2.1211-7.7734 2.6797-11.727 1.5391-3.9531-1.1367-7.2539-3.8711-9.1094-7.543-1.8594-3.668-2.1016-7.9492-0.67578-11.809 1.4258-3.8555 4.3945-6.9492 8.1914-8.5312l21.461-10.801v-20.426c0-5.2852 2.8203-10.172 7.3984-12.816 4.5781-2.6445 10.219-2.6445 14.801 0 4.5781 2.6445 7.3984 7.5312 7.3984 12.816v20.422l21.461 10.805c3.4844 1.7773 6.125 4.8594 7.3438 8.5742 1.2227 3.7148 0.92188 7.7617-0.83203 11.258zm-123.42 8.1406c-4.4883-4.2578-9.457-7.9844-14.801-11.102 5.4805-9.5195 8.5273-20.246 8.8789-31.227 0-16.602-8.8555-31.941-23.234-40.242-14.379-8.3008-32.094-8.3008-46.469 0-14.379 8.3008-23.238 23.641-23.238 40.242 0.34766 11.094 3.4531 21.93 9.0273 31.523-10.629 6.2461-19.531 15.047-25.898 25.605-6.7539 11.266-10.332 24.152-10.359 37.293v21.902c0 7.8516 3.1211 15.379 8.6719 20.93 5.5508 5.5508 13.078 8.668 20.93 8.668h88.797-0.003906c7.8516 0 15.379-3.1172 20.93-8.668 5.5508-5.5508 8.6719-13.078 8.6719-20.93v-21.902c0.050781-12.836-3.3203-25.453-9.7695-36.555-3.332-5.6992-7.4141-10.926-12.133-15.539zm-52.094-59.199c4.4727 0 8.7656 1.7773 11.93 4.9414 3.1641 3.1641 4.9414 7.457 4.9414 11.93 0 12.73-10.508 27.527-16.871 27.527-6.3633 0-16.871-14.801-16.871-27.527h-0.003906c0-4.4727 1.7812-8.7656 4.9414-11.93 3.1641-3.1641 7.457-4.9414 11.934-4.9414zm-44.398 133.2v-21.902c0.050782-7.957 2.3047-15.742 6.5117-22.496 4.6836-8.1836 11.906-14.625 20.57-18.352 1.9609 0.89453 3.9922 1.6367 6.0664 2.2227 8.0469 2.5039 16.668 2.5039 24.715 0l3.8477-1.6289c5.1641 2.1602 9.8438 5.3281 13.766 9.3242 2.7188 2.7305 5.0586 5.8164 6.9531 9.1758 3.8828 6.6445 5.9258 14.203 5.9219 21.902v21.754zm374.13-59.199v0.003907c-3.1133-5.3867-6.8945-10.359-11.25-14.801-4.4883-4.2578-9.4531-7.9844-14.797-11.102 5.4766-9.5195 8.5273-20.246 8.8789-31.227 0-16.602-8.8594-31.941-23.234-40.242-14.379-8.3008-32.094-8.3008-46.473 0-14.379 8.3008-23.234 23.641-23.234 40.242 0.34766 11.094 3.4492 21.93 9.0273 31.523-10.629 6.2461-19.531 15.047-25.898 25.605-6.7539 11.266-10.336 24.152-10.359 37.293v21.902c0 7.8516 3.1172 15.379 8.668 20.93 5.5508 5.5508 13.082 8.668 20.93 8.668h88.797c7.8516 0 15.379-3.1172 20.93-8.668 5.5508-5.5508 8.668-13.078 8.668-20.93v-21.902c-0.082031-12.879-3.6094-25.5-10.211-36.555zm-63.344-73.996c4.4766 0 8.7656 1.7773 11.93 4.9414 3.1641 3.1641 4.9414 7.457 4.9414 11.93 0 12.73-10.508 27.527-16.871 27.527-6.3633 0-16.871-14.801-16.871-27.527 0-4.4727 1.7773-8.7656 4.9414-11.93 3.1641-3.1641 7.457-4.9414 11.93-4.9414zm-44.398 133.2v-21.902c0.050781-7.957 2.3047-15.742 6.5117-22.496 4.6875-8.1836 11.906-14.625 20.57-18.352 1.9648 0.89453 3.9922 1.6367 6.0703 2.2227 8.0469 2.5039 16.668 2.5039 24.715 0l3.8477-1.6289c5.1641 2.1602 9.8398 5.3281 13.762 9.3242 2.7227 2.7305 5.0625 5.8164 6.957 9.1758 3.8828 6.6445 5.9258 14.203 5.918 21.902v21.754z" fill="#ff814a"/>
</svg>
