<?xml version="1.0" encoding="UTF-8"?>
<svg width="752pt" height="752pt" version="1.1" viewBox="0 0 752 752" xmlns="http://www.w3.org/2000/svg">
 <g fill="#366955">
  <path d="m494.4 505.46h-236.79v-7.3984c0-295.38 110.64-348.68 115.36-350.8l3.0391-1.3672 3.043 1.375c4.7148 2.1172 115.36 55.418 115.36 350.79zm-221.97-14.801h207.15c-1.6367-250.59-86.23-317.14-103.59-328.14-17.262 10.945-101.92 77.445-103.56 328.14z"/>
  <path d="m376.88 608.51-5.2539-5.3125c-1.4062-1.4219-34.477-35.34-34.477-78.312 0-9.6875 0.80469-19.152 2.4062-28.125l1.082-6.1055h72.57l1.082 6.1055c1.5977 8.9766 2.4062 18.441 2.4062 28.125 0 42.969-33.145 76.891-34.555 78.312zm-23.695-103.05c-0.82031 6.2812-1.2344 12.793-1.2344 19.43 0 27.27 16.281 51.094 24.93 61.84 8.6719-10.773 25.02-34.684 25.02-61.84 0-6.6367-0.41406-13.148-1.2344-19.43z"/>
  <path d="m572.64 446.48-92.754-8.9453-8.4805-74.789 10.07 2.1758c8.9297 1.9297 18.004 4.7734 26.957 8.4414 39.75 16.293 58.574 59.828 59.352 61.676zm-79.398-22.523 54.766 5.2773c-7.7617-12.859-22.828-33.016-45.184-42.188-4.7734-1.9531-9.5586-3.6484-14.34-5.0703z"/>
  <path d="m179.68 446.48 4.8477-11.449c0.77734-1.8516 19.602-45.383 59.359-61.676 8.9453-3.6719 18.02-6.5117 26.949-8.4414l10.07-2.1758-8.4805 74.789zm84.156-64.496c-4.7812 1.4219-9.5664 3.1172-14.332 5.0703-22.363 9.1602-37.434 29.316-45.191 42.188l54.766-5.2773z"/>
  <path d="m376 456.47c-44.367 0-80.473-36.098-80.473-80.473 0.003906-44.375 36.105-80.469 80.473-80.469 44.371 0 80.473 36.094 80.473 80.469 0 44.379-36.102 80.473-80.473 80.473zm0-146.14c-36.215 0-65.672 29.457-65.672 65.672s29.457 65.672 65.672 65.672 65.672-29.457 65.672-65.672c0-36.211-29.457-65.672-65.672-65.672z"/>
  <path d="m409.3 383.4h-40.699v-57.371h14.801v42.57h25.898z"/>
  <path d="m257.61 154.01h14.801v131.41h-14.801z"/>
  <path d="m231.71 219.72h14.801v92.695h-14.801z"/>
  <path d="m314.41 219.87h123.75v14.801h-123.75z"/>
 </g>
</svg>
